<?xml version="1.0" standalone="no"?>
<!DOCTYPE svg PUBLIC "-//W3C//DTD SVG 20010904//EN"
 "http://www.w3.org/TR/2001/REC-SVG-20010904/DTD/svg10.dtd">
<svg version="1.0" xmlns="http://www.w3.org/2000/svg"
 width="16.000000pt" height="16.000000pt" viewBox="0 0 16.000000 16.000000"
 preserveAspectRatio="xMidYMid meet">
<metadata>
Created by potrace 1.11, written by Peter Selinger 2001-2013
</metadata>
<g transform="translate(0.000000,16.000000) scale(0.003125,-0.003125)"
fill="#000000" stroke="none">
<path d="M1670 3657 c-3 -3 -33 -8 -68 -11 -34 -4 -73 -11 -87 -16 -14 -5 -25
-7 -25 -5 0 7 -171 -55 -225 -82 -289 -145 -511 -459 -550 -778 -4 -27 -9 -58
-11 -68 -7 -24 -7 -271 0 -337 10 -89 33 -195 64 -295 53 -172 197 -366 344
-466 182 -124 372 -179 643 -185 179 -4 274 10 445 65 52 17 113 33 135 37 22
3 41 7 42 7 1 1 4 22 8 47 3 25 8 56 10 70 2 14 6 39 9 55 2 17 7 49 11 73 4
23 8 52 10 65 1 12 5 45 9 74 l7 51 -58 7 c-32 3 -77 10 -101 14 -50 10 -42
22 -122 -169 -29 -69 -62 -133 -74 -144 -32 -28 -114 -63 -176 -75 -85 -15
-254 -7 -327 16 -87 29 -195 104 -260 182 -30 36 -58 73 -61 81 -3 8 -15 31
-27 50 -12 19 -36 71 -53 115 -26 68 -37 113 -68 260 -23 111 -23 412 0 542
60 347 234 568 492 627 81 18 278 14 364 -9 107 -28 132 -49 147 -129 2 -11
10 -45 18 -75 8 -31 17 -69 20 -86 3 -16 11 -55 18 -85 l12 -55 104 0 c120 -1
117 -4 120 110 2 39 4 93 6 120 2 28 6 109 10 181 l6 130 -133 28 c-73 16
-149 30 -168 33 -19 2 -57 9 -85 14 -49 11 -367 24 -375 16z"/>
<path d="M2720 3567 l0 -84 115 -18 115 -18 0 -919 0 -918 -22 -1 c-13 0 -32
-2 -43 -4 -11 -2 -40 -7 -65 -10 -25 -3 -61 -8 -81 -11 l-37 -5 1 -80 1 -79
493 0 493 0 0 80 c0 44 -3 80 -7 81 -5 0 -30 2 -58 4 -27 2 -75 6 -105 9 -30
3 -91 8 -135 12 -44 3 -83 8 -86 9 -3 2 -5 146 -5 320 l1 316 200 1 c224 1
331 17 464 68 239 92 412 294 458 536 14 74 8 305 -10 372 -35 131 -104 229
-206 294 -59 37 -181 84 -256 97 -33 6 -71 14 -85 18 -14 3 -276 8 -582 10
l-558 5 0 -85z m1060 -96 c142 -45 222 -126 261 -266 21 -74 18 -331 -4 -415
-51 -192 -155 -302 -332 -353 -53 -15 -316 -23 -378 -12 l-35 7 0 524 c0 288
1 524 2 524 0 0 33 3 71 6 39 4 72 8 74 10 3 2 66 2 140 0 101 -3 153 -9 201
-25z"/>
</g>
</svg>
