<?xml version="1.0" standalone="no"?>
<!DOCTYPE svg PUBLIC "-//W3C//DTD SVG 20010904//EN"
 "http://www.w3.org/TR/2001/REC-SVG-20010904/DTD/svg10.dtd">
<svg version="1.0" xmlns="http://www.w3.org/2000/svg"
 width="16.000000pt" height="16.000000pt" viewBox="0 0 16.000000 16.000000"
 preserveAspectRatio="xMidYMid meet">
<metadata>
Created by potrace 1.11, written by Peter Selinger 2001-2013
</metadata>
<g transform="translate(0.000000,16.000000) scale(0.003125,-0.003125)"
fill="#000000" stroke="none">
<path d="M665 3396 l0 -85 30 -5 c16 -3 48 -8 70 -12 22 -3 47 -8 55 -9 8 -2
25 -4 38 -4 l22 -1 0 -844 c0 -796 -1 -845 -17 -849 -10 -3 -40 -8 -68 -12
-27 -3 -66 -9 -85 -12 -19 -3 -41 -6 -47 -6 -9 0 -13 -24 -13 -84 l0 -84 483
2 c364 0 502 4 562 15 362 63 633 275 765 598 65 159 90 288 94 475 3 139 -23
343 -53 416 -5 11 -20 48 -34 82 -88 216 -285 382 -539 452 -163 45 -216 49
-768 50 l-495 2 0 -85z m970 -80 c158 -34 250 -81 345 -176 158 -156 231 -393
225 -720 -3 -150 -11 -215 -40 -327 -75 -287 -245 -470 -492 -527 -78 -18
-332 -21 -413 -5 l-59 11 2 866 2 865 25 4 c14 3 45 8 70 13 50 9 288 6 335
-4z"/>
<path d="M3442 3453 c-10 -27 -54 -149 -72 -203 -47 -133 -187 -529 -205 -580
-13 -36 -67 -189 -120 -340 -53 -151 -104 -297 -114 -325 -17 -45 -39 -107
-126 -357 l-27 -77 -49 -10 c-27 -6 -66 -13 -87 -17 l-38 -6 0 -74 0 -74 337
0 337 0 -1 70 c0 39 -3 73 -7 75 -4 2 -27 7 -51 10 -24 3 -71 10 -104 15 -33
5 -63 10 -66 10 -3 0 22 89 56 198 l62 197 403 0 404 0 62 -195 c35 -107 62
-196 60 -197 -5 -6 -53 -14 -163 -28 l-53 -7 0 -74 0 -74 375 0 375 0 0 73 0
74 -87 17 c-48 9 -88 18 -89 19 0 1 -22 63 -48 137 -63 179 -138 391 -165 465
-12 33 -29 80 -37 105 -28 83 -75 215 -89 250 -8 19 -38 105 -69 190 -30 85
-90 256 -134 380 -44 124 -92 260 -107 303 l-28 77 -162 0 -163 0 -10 -27z
m327 -868 c77 -236 141 -433 141 -437 0 -5 -155 -8 -344 -8 l-344 0 35 108
c112 344 253 799 289 934 l19 67 31 -117 c17 -64 95 -310 173 -547z"/>
</g>
</svg>
