<?xml version="1.0" standalone="no"?>
<!DOCTYPE svg PUBLIC "-//W3C//DTD SVG 20010904//EN"
 "http://www.w3.org/TR/2001/REC-SVG-20010904/DTD/svg10.dtd">
<svg version="1.0" xmlns="http://www.w3.org/2000/svg"
 width="16.000000pt" height="16.000000pt" viewBox="0 0 16.000000 16.000000"
 preserveAspectRatio="xMidYMid meet">
<metadata>
Created by potrace 1.11, written by Peter Selinger 2001-2013
</metadata>
<g transform="translate(0.000000,16.000000) scale(0.003125,-0.003125)"
fill="#000000" stroke="none">
<path d="M2384 5110 c-919 -66 -1730 -617 -2129 -1447 -423 -880 -302 -1937
310 -2698 419 -522 1008 -853 1675 -941 167 -22 473 -22 640 0 884 117 1635
669 2002 1471 321 701 310 1502 -30 2194 -298 608 -846 1085 -1487 1296 -311
103 -665 148 -981 125z m454 -1029 c207 -52 363 -160 468 -322 94 -145 141
-316 151 -545 7 -173 -8 -255 -73 -382 -64 -128 -126 -204 -364 -447 -247
-252 -284 -294 -351 -407 -50 -83 -99 -216 -99 -269 0 -47 -17 -33 -24 20 -14
105 -71 229 -163 352 -26 35 -149 168 -273 294 -124 127 -249 262 -278 300
-72 96 -137 228 -158 321 -22 99 -14 325 15 456 77 338 282 555 593 627 122
29 128 30 308 26 126 -2 185 -8 248 -24z m-315 -2605 c36 -18 38 -18 75 0 95
45 211 26 284 -47 153 -153 56 -406 -161 -417 -55 -3 -74 1 -113 21 l-48 24
-47 -24 c-40 -20 -59 -24 -114 -21 -217 11 -315 268 -160 418 26 25 62 51 81
57 49 17 158 11 203 -11z"/>
</g>
</svg>
